<?xml version="1.0" encoding="UTF-8"?>
<!DOCTYPE svg PUBLIC "-//W3C//DTD SVG 1.1//EN" "http://www.w3.org/Graphics/SVG/1.1/DTD/svg11.dtd">
<svg xmlns="http://www.w3.org/2000/svg" version="1.1" width="1024px" height="335px" style="shape-rendering:geometricPrecision; text-rendering:geometricPrecision; image-rendering:optimizeQuality; fill-rule:evenodd; clip-rule:evenodd" xmlns:xlink="http://www.w3.org/1999/xlink">
<g><path style="opacity:1" fill="#ed7d23" d="M 243.5,-0.5 C 254.5,-0.5 265.5,-0.5 276.5,-0.5C 289.276,1.45531 300.943,6.28864 311.5,14C 312.711,14.8928 312.711,15.7261 311.5,16.5C 295.858,6.9075 278.858,3.74083 260.5,7C 208.671,17.5166 165.838,43.0166 132,83.5C 123.318,94.3524 118.152,106.686 116.5,120.5C 118.422,141.923 130.089,154.09 151.5,157C 179.524,158.076 205.858,152.076 230.5,139C 231.5,138.333 232.5,138.333 233.5,139C 200.483,160.678 164.15,169.678 124.5,166C 108.463,162.299 98.9628,152.466 96,136.5C 94.7689,124.093 96.4356,112.093 101,100.5C 112.578,74.3647 130.078,53.0314 153.5,36.5C 180.835,17.4936 210.835,5.16026 243.5,-0.5 Z"/></g>
<g><path style="opacity:0.998" fill="#1e194e" d="M 279.5,21.5 C 293.273,20.615 306.273,23.2816 318.5,29.5C 325.448,34.389 329.614,41.0556 331,49.5C 333.362,65.5984 331.029,80.9318 324,95.5C 307.486,126.014 283.986,149.514 253.5,166C 245.833,169.667 238.167,173.333 230.5,177C 213.196,183.985 195.196,188.318 176.5,190C 162.564,191.106 148.898,189.773 135.5,186C 128.825,183.168 122.492,179.668 116.5,175.5C 115.417,174.635 115.251,173.635 116,172.5C 126.978,179.791 139.145,183.457 152.5,183.5C 177.794,181.886 201.627,175.22 224,163.5C 252.078,149.14 276.078,129.807 296,105.5C 304.657,94.6608 309.824,82.3275 311.5,68.5C 308.531,46.9877 296.198,34.821 274.5,32C 259.924,31.5819 245.591,33.2485 231.5,37C 219.011,41.3823 206.678,45.7156 194.5,50C 220.522,33.6579 248.856,24.1579 279.5,21.5 Z"/></g>
<g><path style="opacity:1" fill="#ed7d23" d="M 323.5,166.5 C 324.496,166.414 325.329,166.748 326,167.5C 326.167,192.173 326.667,216.84 327.5,241.5C 338.982,232.518 349.315,222.352 358.5,211C 366.159,210.5 373.826,210.334 381.5,210.5C 381.768,213.119 381.435,215.619 380.5,218C 376.416,218.231 372.416,218.898 368.5,220C 360.551,225.615 353.218,231.948 346.5,239C 357.127,251.962 368.127,264.629 379.5,277C 381.65,278.411 383.984,279.245 386.5,279.5C 386.838,282.011 386.838,284.345 386.5,286.5C 376.851,287.665 367.184,287.832 357.5,287C 348.866,273.687 338.7,261.52 327,250.5C 326.333,259.5 326.333,268.5 327,277.5C 330.405,278.582 333.905,279.416 337.5,280C 338.591,282.064 338.758,284.231 338,286.5C 322.905,286.175 307.739,286.509 292.5,287.5C 292.5,284.833 292.5,282.167 292.5,279.5C 296.179,279.276 299.846,278.942 303.5,278.5C 304.628,248.186 304.794,217.852 304,187.5C 303.749,185.567 303.249,183.734 302.5,182C 299.274,180.801 295.941,180.301 292.5,180.5C 292.5,178.167 292.5,175.833 292.5,173.5C 303.296,172.543 313.629,170.209 323.5,166.5 Z"/></g>
<g><path style="opacity:0.999" fill="#1f1a4f" d="M 440.5,171.5 C 449.173,171.334 457.84,171.5 466.5,172C 472.119,172.789 477.452,174.456 482.5,177C 483.122,178.569 483.456,180.236 483.5,182C 482.315,189.123 481.649,196.29 481.5,203.5C 478.833,203.5 476.167,203.5 473.5,203.5C 475.539,194.001 472.205,187.501 463.5,184C 453.163,180.17 443.496,181.337 434.5,187.5C 428.88,194.591 428.047,202.257 432,210.5C 433.41,211.787 434.91,212.954 436.5,214C 448.352,217.315 460.352,219.982 472.5,222C 478.005,223.828 482.505,226.994 486,231.5C 496.15,260.368 486.65,279.534 457.5,289C 440.732,291.972 424.732,289.805 409.5,282.5C 408.585,281.672 407.919,280.672 407.5,279.5C 409.567,270.632 410.567,261.632 410.5,252.5C 412.833,252.5 415.167,252.5 417.5,252.5C 417.466,258.296 418.299,263.963 420,269.5C 432.14,280.105 445.64,282.105 460.5,275.5C 467.145,269.273 469.645,261.606 468,252.5C 466.919,249.346 465.086,246.679 462.5,244.5C 449.88,241.172 437.213,238.005 424.5,235C 416.808,231.977 411.975,226.477 410,218.5C 405.703,200.037 411.537,185.87 427.5,176C 431.879,174.433 436.213,172.933 440.5,171.5 Z"/></g>
<g><path style="opacity:1" fill="#ed7d24" d="M 58.5,172.5 C 69.3656,171.839 79.3656,174.339 88.5,180C 95.938,190.06 96.438,200.56 90,211.5C 84.6273,217.269 78.1273,221.102 70.5,223C 94.0407,226.219 102.874,239.385 97,262.5C 89.8425,277.307 78.0092,285.474 61.5,287C 44.4826,286.906 27.4826,287.073 10.5,287.5C 10.3379,285.473 10.5045,283.473 11,281.5C 13.3171,280.18 15.3171,278.514 17,276.5C 17.6667,246.167 17.6667,215.833 17,185.5C 16.6258,184.584 16.1258,183.75 15.5,183C 11.9164,181.927 8.24977,181.26 4.5,181C 3.565,178.619 3.23166,176.119 3.5,173.5C 22.0076,173.83 40.3409,173.497 58.5,172.5 Z M 44.5,182.5 C 66.0563,181.225 73.5563,190.892 67,211.5C 60.4889,218.681 52.3222,221.347 42.5,219.5C 41.8845,206.917 42.5511,194.584 44.5,182.5 Z M 42.5,229.5 C 66.1071,227.604 75.9404,238.271 72,261.5C 66.8606,275.291 57.0272,280.291 42.5,276.5C 42.5,260.833 42.5,245.167 42.5,229.5 Z"/></g>
<g><path style="opacity:0.999" fill="#1e194f" d="M 502.5,173.5 C 519.833,173.5 537.167,173.5 554.5,173.5C 554.808,175.924 554.474,178.257 553.5,180.5C 550.198,181.258 546.865,181.925 543.5,182.5C 542.353,182.818 541.519,183.484 541,184.5C 538.806,209.868 539.14,235.202 542,260.5C 544.167,266.667 548.333,270.833 554.5,273C 568.942,278.229 581.775,275.729 593,265.5C 594.867,263.192 595.867,260.525 596,257.5C 597.568,234.194 597.901,210.86 597,187.5C 596.727,185.899 596.227,184.399 595.5,183C 591.593,182.323 587.759,181.49 584,180.5C 583.503,178.19 583.337,175.857 583.5,173.5C 596.167,173.5 608.833,173.5 621.5,173.5C 621.663,175.857 621.497,178.19 621,180.5C 618.198,181.33 615.365,182.163 612.5,183C 611.299,183.903 610.465,185.069 610,186.5C 609.667,207.167 609.333,227.833 609,248.5C 606.863,276.466 591.697,290.466 563.5,290.5C 550.612,290.478 538.612,287.312 527.5,281C 522.087,276.345 518.587,270.512 517,263.5C 515.878,237.18 515.211,210.847 515,184.5C 513.902,183.033 512.402,182.199 510.5,182C 507.854,181.503 505.187,181.336 502.5,181.5C 502.5,178.833 502.5,176.167 502.5,173.5 Z"/></g>
<g><path style="opacity:0.998" fill="#1e1a4f" d="M 630.5,173.5 C 644.167,173.5 657.833,173.5 671.5,173.5C 675.345,183.537 679.511,193.537 684,203.5C 692.179,219.676 700.179,236.01 708,252.5C 712.327,244.202 716.661,235.869 721,227.5C 729.161,209.524 736.995,191.524 744.5,173.5C 757.5,173.5 770.5,173.5 783.5,173.5C 783.808,175.924 783.474,178.257 782.5,180.5C 778.81,181.194 775.143,182.028 771.5,183C 770.809,184.067 770.309,185.234 770,186.5C 769.333,215.833 769.333,245.167 770,274.5C 770.318,276.061 771.151,277.228 772.5,278C 775.882,278.176 779.215,278.676 782.5,279.5C 783.544,281.768 783.711,284.101 783,286.5C 765.904,286.184 748.738,286.517 731.5,287.5C 731.5,284.5 731.5,281.5 731.5,278.5C 735.182,278.665 738.848,278.499 742.5,278C 743,277.5 743.5,277 744,276.5C 744.667,251.833 744.667,227.167 744,202.5C 730.108,230.48 716.774,258.814 704,287.5C 701.619,288.435 699.119,288.768 696.5,288.5C 684.095,259.021 670.595,230.021 656,201.5C 655.333,226.167 655.333,250.833 656,275.5C 656.833,276.333 657.667,277.167 658.5,278C 661.882,278.176 665.215,278.676 668.5,279.5C 669.544,281.768 669.711,284.101 669,286.5C 656.333,286.5 643.667,286.5 631,286.5C 630.333,284.167 630.333,281.833 631,279.5C 634.8,278.801 638.633,278.135 642.5,277.5C 643.298,275.922 643.798,274.256 644,272.5C 644.794,242.481 644.627,212.481 643.5,182.5C 639.51,182.001 635.51,181.501 631.5,181C 630.565,178.619 630.232,176.119 630.5,173.5 Z"/></g>
<g><path style="opacity:0.999" fill="#1e1a4f" d="M 791.5,173.5 C 808.833,173.5 826.167,173.5 843.5,173.5C 843.768,176.119 843.435,178.619 842.5,181C 838.75,181.26 835.084,181.927 831.5,183C 830.809,184.067 830.309,185.234 830,186.5C 829.333,207.833 829.333,229.167 830,250.5C 831.156,267.774 840.49,276.107 858,275.5C 868.226,275.999 876.559,272.332 883,264.5C 884.399,261.637 885.399,258.637 886,255.5C 886.667,231.833 886.667,208.167 886,184.5C 882.149,182.377 877.982,181.044 873.5,180.5C 872.526,178.257 872.192,175.924 872.5,173.5C 885.5,173.5 898.5,173.5 911.5,173.5C 911.808,175.924 911.474,178.257 910.5,180.5C 906.649,181.03 903.149,182.363 900,184.5C 898.859,206.816 898.193,229.149 898,251.5C 896.935,271.9 886.435,284.4 866.5,289C 853.713,290.786 841.047,290.119 828.5,287C 813.631,282.147 806.131,271.981 806,256.5C 805.813,232.151 805.146,207.817 804,183.5C 800.321,182.115 796.488,181.282 792.5,181C 791.565,178.619 791.232,176.119 791.5,173.5 Z"/></g>
<g><path style="opacity:0.999" fill="#1e1a4e" d="M 918.5,172.5 C 952,173.83 985.5,173.83 1019,172.5C 1019.94,173.263 1020.44,174.263 1020.5,175.5C 1019.88,184.051 1019.21,192.551 1018.5,201C 1016.23,201.758 1014.06,201.591 1012,200.5C 1011.67,196.5 1011.33,192.5 1011,188.5C 1009.83,187.333 1008.67,186.167 1007.5,185C 998.506,184.5 989.506,184.334 980.5,184.5C 980.093,214.523 980.593,244.523 982,274.5C 982.318,276.061 983.151,277.228 984.5,278C 987.833,278.333 991.167,278.667 994.5,279C 995.602,281.401 995.769,283.901 995,286.5C 977.904,286.184 960.738,286.517 943.5,287.5C 943.5,284.5 943.5,281.5 943.5,278.5C 947.182,278.665 950.848,278.499 954.5,278C 955.249,276.266 955.749,274.433 956,272.5C 956.5,243.169 956.667,213.835 956.5,184.5C 948.16,184.334 939.827,184.5 931.5,185C 930.5,185.5 929.5,186 928.5,186.5C 927.342,191.103 926.509,195.77 926,200.5C 923.936,201.591 921.769,201.758 919.5,201C 918.712,193.232 918.046,185.399 917.5,177.5C 917.592,175.742 917.925,174.076 918.5,172.5 Z"/></g>
<g><path style="opacity:1" fill="#ed7d24" d="M 142.5,207.5 C 150.86,207.09 158.86,208.59 166.5,212C 170.445,215.384 173.278,219.55 175,224.5C 175.333,241.833 175.667,259.167 176,276.5C 178.292,278.773 181.125,279.94 184.5,280C 185.591,282.064 185.758,284.231 185,286.5C 183.938,287.097 182.772,287.43 181.5,287.5C 172.502,286.278 163.502,286.278 154.5,287.5C 154.82,284.102 154.487,280.768 153.5,277.5C 148.343,281.578 143.01,285.412 137.5,289C 121.621,291.243 113.621,284.41 113.5,268.5C 112.601,260.135 115.601,253.635 122.5,249C 132.749,244.787 143.415,241.954 154.5,240.5C 155.712,228.884 150.545,222.551 139,221.5C 135.718,221.731 132.551,222.397 129.5,223.5C 129.425,226.407 128.591,229.073 127,231.5C 121.722,233.326 119.556,231.326 120.5,225.5C 120.667,223.5 120.833,221.5 121,219.5C 127.567,214.303 134.733,210.303 142.5,207.5 Z M 151.5,248.5 C 152.5,248.5 153.5,248.5 154.5,248.5C 154.666,254.842 154.5,261.175 154,267.5C 150.364,273.177 145.197,275.01 138.5,273C 137.333,271.833 136.167,270.667 135,269.5C 132.696,261.85 134.862,256.017 141.5,252C 145.163,251.428 148.497,250.262 151.5,248.5 Z"/></g>
<g><path style="opacity:1" fill="#ed7d24" d="M 220.5,207.5 C 222.167,207.5 223.833,207.5 225.5,207.5C 225.334,211.846 225.501,216.179 226,220.5C 230.125,217.711 233.958,214.544 237.5,211C 245.034,208.113 252.701,207.78 260.5,210C 271.24,214.963 276.24,223.463 275.5,235.5C 274.204,249.852 274.204,264.186 275.5,278.5C 278.487,278.998 281.487,279.498 284.5,280C 285.833,282.333 285.833,284.667 284.5,287C 273.506,286.268 262.506,286.434 251.5,287.5C 252.444,270.175 252.611,252.842 252,235.5C 248.338,224.054 241.172,221.221 230.5,227C 228.383,228.731 226.883,230.898 226,233.5C 225.333,247.5 225.333,261.5 226,275.5C 226.374,276.416 226.874,277.25 227.5,278C 230.506,278.332 233.34,279.166 236,280.5C 236.687,282.568 236.52,284.568 235.5,286.5C 220.964,286.541 206.464,286.541 192,286.5C 191.242,284.231 191.409,282.064 192.5,280C 196.397,279.7 199.897,278.533 203,276.5C 203.667,258.833 203.667,241.167 203,223.5C 199.733,221.899 196.233,221.066 192.5,221C 191.577,218.959 191.244,216.792 191.5,214.5C 198.461,213.196 205.461,212.029 212.5,211C 215.401,210.125 218.068,208.958 220.5,207.5 Z"/></g>
</svg>
